<?xml version="1.0" encoding="UTF-8"?>
<svg width="1200" height="320" viewBox="0 0 1200 320" fill="none" xmlns="http://www.w3.org/2000/svg">
  <defs>
    <linearGradient id="g" x1="0" y1="0" x2="1200" y2="320" gradientUnits="userSpaceOnUse">
      <stop stop-color="#0B1220"/>
      <stop offset="1" stop-color="#070A12"/>
    </linearGradient>

    <linearGradient id="a" x1="0" y1="0" x2="1200" y2="0" gradientUnits="userSpaceOnUse">
      <stop stop-color="#1E3A8A" stop-opacity="0.55"/>
      <stop offset="0.5" stop-color="#38BDF8" stop-opacity="0.18"/>
      <stop offset="1" stop-color="#1E3A8A" stop-opacity="0.55"/>
    </linearGradient>

    <filter id="soft" x="-20%" y="-40%" width="140%" height="180%">
      <feGaussianBlur stdDeviation="12" result="blur"/>
      <feColorMatrix in="blur" type="matrix"
        values="1 0 0 0 0
                0 1 0 0 0
                0 0 1 0 0
                0 0 0 0.35 0" result="glow"/>
      <feMerge>
        <feMergeNode in="glow"/>
        <feMergeNode in="SourceGraphic"/>
      </feMerge>
    </filter>
  </defs>

  <!-- background -->
  <rect width="1200" height="320" fill="url(#g)"/>

  <!-- subtle grid -->
  <g opacity="0.08">
    <path d="M0 64H1200M0 128H1200M0 192H1200M0 256H1200" stroke="#E5E7EB" stroke-width="1"/>
    <path d="M120 0V320M240 0V320M360 0V320M480 0V320M600 0V320M720 0V320M840 0V320M960 0V320M1080 0V320" stroke="#E5E7EB" stroke-width="1"/>
  </g>

  <!-- wave layers -->
  <path d="M0 220C140 170 260 250 400 215C540 180 660 120 800 145C940 170 1020 250 1200 210V320H0V220Z"
        fill="#0F172A" opacity="0.95"/>
  <path d="M0 240C160 200 280 285 430 245C580 205 690 145 830 165C970 185 1040 275 1200 235V320H0V240Z"
        fill="#0B1220" opacity="0.9"/>

  <!-- accent stroke -->
  <g filter="url(#soft)">
    <path d="M0 216C140 166 260 246 400 211C540 176 660 116 800 141C940 166 1020 246 1200 206"
          stroke="url(#a)" stroke-width="3" opacity="0.85"/>
  </g>

  <!-- minimal highlight dots -->
  <g opacity="0.55">
    <circle cx="980" cy="86" r="2.2" fill="#38BDF8"/>
    <circle cx="1010" cy="106" r="1.8" fill="#93C5FD"/>
    <circle cx="1045" cy="78" r="1.6" fill="#38BDF8"/>
    <circle cx="1120" cy="118" r="2.0" fill="#60A5FA"/>
  </g>
</svg>
